IKResults
version=1
nRows=141
nColumns=5
inDegrees=yes

Units are S.I. units (second, meters, Newtons, ...)
If the header above contains a line with 'inDegrees', this indicates whether rotational values are in degrees (yes) or radians (no).

endheader
time	r_shoulder_elev	r_shoulder_side	r_elbow_flex	r_elbow_rotation
      9.78330000	     83.26946481	     -6.82369703	    -24.71967514	     49.12820120
      9.80000000	     83.26946481	     -6.82369703	    -24.71967514	     49.12820120
      9.81670000	     83.25650997	     -6.83706667	    -24.73035044	     49.32018613
      9.83330000	     83.25922758	     -6.81999180	    -24.69646993	     49.33705986
      9.85000000	     83.25101722	     -6.79809274	    -24.63728555	     49.35976528
      9.86670000	     83.25427038	     -6.78240076	    -24.59110569	     49.36964799
      9.88330000	     83.24947675	     -6.76823584	    -24.54366338	     49.37146494
      9.90000000	     83.24829416	     -6.74721453	    -24.43279236	     49.17704380
      9.91670000	     83.25289285	     -6.77280070	    -24.39459748	     49.17925074
      9.93330000	     83.26272906	     -6.78876524	    -24.35747088	     49.01193628
      9.95000000	     83.28496282	     -6.81080406	    -24.35202536	     48.81150849
      9.96670000	     83.29863243	     -6.81190250	    -24.33662048	     48.45438438
      9.98330000	     83.31163855	     -6.79692294	    -24.30926748	     47.96702041
     10.00000000	     83.32854880	     -6.79325176	    -24.36101916	     47.66773762
     10.01670000	     83.32897768	     -6.78234702	    -24.34409813	     47.38695792
     10.03330000	     83.33017059	     -6.76386975	    -24.38780790	     47.36774315
     10.05000000	     83.33458981	     -6.74952345	    -24.40392465	     47.51245621
     10.06670000	     83.32980335	     -6.72521339	    -24.36946923	     47.53978264
     10.08330000	     83.34097073	     -6.70163211	    -24.32813235	     47.55945905
     10.10000000	     83.34913508	     -6.68403428	    -24.23450574	     47.41099124
     10.11670000	     83.34906480	     -6.67734440	    -24.12649663	     47.17456189
     10.13330000	     83.33909287	     -6.68118879	    -24.04652574	     47.04654962
     10.15000000	     83.32975747	     -6.67867555	    -23.97392353	     46.94459403
     10.16670000	     83.32702852	     -6.69438120	    -24.01182435	     47.26759443
     10.18330000	     83.33788599	     -6.68411454	    -24.02015387	     47.56421659
     10.20000000	     83.36046840	     -6.66047555	    -24.02324844	     47.86140948
     10.21670000	     83.40545344	     -6.61966431	    -23.96137732	     47.89102905
     10.23330000	     83.46987464	     -6.56646303	    -23.86631540	     47.75438679
     10.25000000	     83.54729341	     -6.50172253	    -23.66196289	     47.53122348
     10.26670000	     83.61003477	     -6.40468501	    -23.27003444	     47.02732371
     10.28330000	     83.67975011	     -6.31695586	    -22.85630527	     46.52802444
     10.30000000	     83.74440180	     -6.25266049	    -22.38893274	     45.87603452
     10.31670000	     83.79228678	     -6.22238188	    -21.88802814	     45.14841747
     10.33330000	     83.84435650	     -6.22661766	    -21.31057760	     44.41014831
     10.35000000	     83.90692198	     -6.25570912	    -20.54438024	     43.54397431
     10.36670000	     83.97922019	     -6.29379234	    -19.53385866	     42.54476011
     10.38330000	     84.09032037	     -6.31571401	    -18.32604979	     41.39192701
     10.40000000	     84.22986746	     -6.33242930	    -16.99274693	     40.15433244
     10.41670000	     84.36685948	     -6.31626111	    -15.63511788	     38.95497193
     10.43330000	     84.47815566	     -6.29160199	    -14.33387069	     37.84177479
     10.45000000	     84.56750072	     -6.23046958	    -13.05266274	     36.70472188
     10.46670000	     84.62230863	     -6.14749297	    -11.72150321	     35.49638798
     10.48330000	     84.64911368	     -5.99668217	    -10.04037029	     33.65934881
     10.50000000	     84.65707982	     -5.78921736	     -7.83324109	     31.11130160
     10.51670000	     84.62674799	     -5.53140789	     -4.76835639	     27.39682794
     10.53330000	     84.54034488	     -5.25334332	     -0.83465153	     22.68651822
     10.55000000	     84.34181030	     -4.95893146	      4.63069938	     15.89192642
     10.56670000	     84.01267751	     -4.75278141	     13.30192340	      3.46414769
     10.58330000	     83.58713743	     -4.72946741	     16.18258826	      4.77401982
     10.60000000	     83.08365038	     -4.70265121	     20.59314986	      3.49319364
     10.61670000	     82.57592145	     -4.68207097	     24.54363488	      3.50547274
     10.63330000	     82.10482565	     -4.65909158	     28.43182802	      3.50361780
     10.65000000	     81.68751508	     -4.63985342	     32.05194801	      3.50196864
     10.66670000	     81.32989661	     -4.61261793	     35.27306526	      3.47845750
     10.68330000	     81.05050488	     -4.57304171	     37.40458657	      4.44713191
     10.70000000	     80.82891520	     -4.52954701	     39.84087433	      3.49892412
     10.71670000	     80.63858787	     -4.47195332	     41.20760904	      4.12184814
     10.73330000	     80.44337532	     -4.39475003	     42.55415116	      4.72440047
     10.75000000	     80.19824264	     -4.29071829	     45.02420549	      3.50054256
     10.76670000	     79.93600314	     -4.14544437	     46.91064003	      4.35820538
     10.78330000	     79.65886484	     -3.94301966	     49.96202372	      3.49951032
     10.80000000	     79.43378511	     -3.69965598	     52.23931295	      4.53437381
     10.81670000	     79.24294914	     -3.44074108	     55.39598529	      3.49531315
     10.83330000	     79.11614548	     -3.22939578	     57.40777077	      4.41225139
     10.85000000	     78.95187775	     -3.05358403	     59.41721404	      5.31639977
     10.86670000	     78.74712026	     -2.93001162	     62.87043905	      3.50176159
     10.88330000	     78.48490221	     -2.83967096	     65.26169516	      4.59531225
     10.90000000	     78.17366490	     -2.79577260	     67.85345194	      5.77399345
     10.91670000	     77.85796761	     -2.80040548	     70.44900024	      6.94878270
     10.93330000	     77.56828767	     -2.81753233	     72.99141272	      8.09751597
     10.95000000	     77.31302842	     -2.80313782	     75.47731313	      9.22711606
     10.96670000	     77.09428997	     -2.86517855	     74.69927445	     17.49830084
     10.98330000	     76.94712318	     -2.92577451	     74.26104857	     24.64326063
     11.00000000	     76.87837319	     -2.95880571	     73.94794540	     30.92976803
     11.01670000	     76.82156436	     -2.96615005	     73.91190377	     36.10229665
     11.03330000	     76.74855661	     -2.98238748	     74.45642598	     40.15062092
     11.05000000	     76.63416898	     -2.96908286	     75.76116189	     42.88891066
     11.06670000	     76.51457135	     -2.92916208	     77.59683101	     44.63016488
     11.08330000	     76.41422626	     -2.90961125	     79.48502750	     45.97533498
     11.10000000	     76.37321905	     -2.87861988	     81.20577940	     46.69891231
     11.11670000	     76.36585404	     -2.84855753	     82.53376472	     47.31670381
     11.13330000	     76.36184076	     -2.80724468	     83.64356674	     47.88621405
     11.15000000	     76.33526749	     -2.80561054	     84.59409238	     48.95593374
     11.16670000	     76.23991047	     -2.78957632	     85.65715736	     50.30272304
     11.18330000	     76.07218193	     -2.81149071	     86.91128209	     51.98936324
     11.20000000	     75.86817585	     -2.85022197	     88.24781074	     53.87933407
     11.21670000	     75.66777247	     -2.87186710	     89.74537090	     55.28690801
     11.23330000	     75.51901280	     -2.88967626	     91.13767515	     56.45889699
     11.25000000	     75.41337156	     -2.89385794	     92.49542680	     57.25106337
     11.26670000	     75.32853704	     -2.89406995	     93.77873944	     58.05451062
     11.28330000	     75.27101580	     -2.91946983	     94.88901355	     59.14583730
     11.30000000	     75.21028591	     -2.94358009	     95.96038131	     60.32724834
     11.31670000	     75.14918661	     -2.96814305	     96.93856374	     61.42316317
     11.33330000	     75.11750238	     -3.00316095	     97.84723789	     62.48755799
     11.35000000	     75.07243898	     -3.03745872	     98.78367523	     63.54140395
     11.36670000	     75.05323718	     -3.08682912	     99.73554050	     64.62708687
     11.38330000	     75.06202699	     -3.10064660	    100.63836733	     65.78951299
     11.40000000	     75.07895086	     -3.07584406	    101.43291437	     66.78404834
     11.41670000	     75.11533238	     -3.03101946	    102.09907544	     67.66638612
     11.43330000	     75.15296905	     -2.95960772	    102.72690015	     68.33096649
     11.45000000	     75.22132215	     -2.87173144	    103.38917219	     68.78564262
     11.46670000	     75.27968504	     -2.80814739	    104.11324382	     69.06627845
     11.48330000	     75.33651599	     -2.75775466	    104.76764155	     69.39116159
     11.50000000	     75.35262254	     -2.73106928	    105.28248782	     69.64891286
     11.51670000	     75.33858544	     -2.69895380	    105.64868018	     69.84032438
     11.53330000	     75.32121865	     -2.66745681	    105.88001568	     69.88951509
     11.55000000	     75.29460174	     -2.65000656	    106.06208845	     70.07641226
     11.56670000	     75.30966221	     -2.64087809	    106.19885458	     70.10475935
     11.58330000	     75.31804712	     -2.66449900	    106.36193645	     70.13608712
     11.60000000	     75.35331681	     -2.70849844	    106.52542259	     70.15743471
     11.61670000	     75.36986875	     -2.73335243	    106.75484886	     70.02261491
     11.63330000	     75.38749535	     -2.75918369	    106.92572771	     69.90518027
     11.65000000	     75.37941597	     -2.79477437	    107.00760312	     69.91075952
     11.66670000	     75.36207710	     -2.78234949	    107.00653446	     70.02961167
     11.68330000	     75.34986284	     -2.74754251	    106.92671087	     70.11099274
     11.70000000	     75.35460360	     -2.68296470	    106.77919730	     70.28701581
     11.71670000	     75.36596807	     -2.58068907	    106.63164144	     70.28142984
     11.73330000	     75.37565363	     -2.46149489	    106.51311970	     70.27076637
     11.75000000	     75.37634513	     -2.36497779	    106.41568854	     70.12133964
     11.76670000	     75.37192551	     -2.31370251	    106.32383096	     70.01544403
     11.78330000	     75.35306306	     -2.28449504	    106.18728635	     69.98231381
     11.80000000	     75.29187158	     -2.30512390	    106.01030484	     69.94886557
     11.81670000	     75.22193877	     -2.34979492	    105.75757566	     70.01671964
     11.83330000	     75.10129455	     -2.39191755	    105.31775630	     70.18268176
     11.85000000	     75.00193914	     -2.37078422	    104.72574852	     70.21755302
     11.86670000	     74.91399372	     -2.32601853	    103.99433301	     70.21031294
     11.88330000	     74.84847264	     -2.25752364	    103.26567851	     70.30094126
     11.90000000	     74.79503132	     -2.17554032	    102.61752343	     70.34137465
     11.91670000	     74.76172833	     -2.13415156	    102.01787872	     70.55394391
     11.93330000	     74.72579817	     -2.12280215	    101.34365920	     70.77172606
     11.95000000	     74.67606236	     -2.17249597	    100.48599144	     70.93606791
     11.96670000	     74.60721941	     -2.24930533	     99.43343720	     70.74347025
     11.98330000	     74.54021078	     -2.32708064	     98.13462265	     70.21662152
     12.00000000	     74.49230648	     -2.41149481	     96.71323470	     69.50741177
     12.01670000	     74.49843561	     -2.45204238	     95.26370291	     68.61265752
     12.03330000	     74.56634809	     -2.43815726	     93.80789352	     67.74234529
     12.05000000	     74.66263515	     -2.40277903	     92.26548793	     66.98662143
     12.06670000	     74.80715804	     -2.34491134	     90.55139565	     66.37432034
     12.08330000	     74.96980762	     -2.30777766	     88.59561196	     65.88985937
     12.10000000	     75.16983959	     -2.32111006	     86.36277290	     65.63977913
     12.11670000	     75.40518889	     -2.33384236	     84.04786275	     65.43786438
